# xmcd
#
# Track frame offsets:
#	150
#	16040
#	33263
#	48487
#	74604
#	94715
#	113537
#	134359
#
# Disc length: 2028 seconds
#
# Revision: 1
# Processed by: cddbd v1.5.2PL0 Copyright (c) Steve Scherf et al.
# Submitted via: EZCDAudioConverter 8.0.2.1
#
DISCID=6007ea08
DTITLE=Mai Khôi - Hoa Dại
DYEAR=2008
DGENRE=World Pop
TTITLE0=Hoa Dại
TTITLE1=Cám ơn một đóa xuân ngời
TTITLE2=Lan xưa
TTITLE3=Phượng yêu
TTITLE4=Hoa xuân
TTITLE5=Hoa sữa
TTITLE6=Em hay là hoa hồng
TTITLE7=Sen Em
EXTD=
EXTT0=
EXTT1=
EXTT2=
EXTT3=
EXTT4=
EXTT5=
EXTT6=
EXTT7=
PLAYORDER=
